<?xml version="1.0" encoding="UTF-8" standalone="no"?>
<!-- Created with Inkscape (http://www.inkscape.org/) -->

<svg
   version="1.1"
   id="svg132"
   width="116.26608"
   height="40"
   viewBox="0 0 116.26608 40"
   sodipodi:docname="scratchLogo.svg"
   inkscape:version="1.2.1 (9c6d41e410, 2022-07-14)"
   inkscape:export-filename="scratchLogo.png"
   inkscape:export-xdpi="72"
   inkscape:export-ydpi="72"
   xmlns:inkscape="http://www.inkscape.org/namespaces/inkscape"
   xmlns:sodipodi="http://sodipodi.sourceforge.net/DTD/sodipodi-0.dtd"
   xmlns="http://www.w3.org/2000/svg"
   xmlns:svg="http://www.w3.org/2000/svg">
  <defs
     id="defs136">
    <filter
       inkscape:collect="always"
       style="color-interpolation-filters:sRGB"
       id="filter7064"
       x="-0.0080019736"
       y="-0.023982267"
       width="1.0160039"
       height="1.0479645">
      <feGaussianBlur
         inkscape:collect="always"
         stdDeviation="0.33133416"
         id="feGaussianBlur7066" />
    </filter>
    <filter
       inkscape:collect="always"
       style="color-interpolation-filters:sRGB"
       id="filter14733"
       x="-0.0019635712"
       y="-0.0063536229"
       width="1.0039271"
       height="1.0127072">
      <feGaussianBlur
         inkscape:collect="always"
         stdDeviation="0.07848949"
         id="feGaussianBlur14735" />
    </filter>
  </defs>
  <sodipodi:namedview
     id="namedview134"
     pagecolor="#ffffff"
     bordercolor="#666666"
     borderopacity="1.0"
     inkscape:showpageshadow="2"
     inkscape:pageopacity="0.0"
     inkscape:pagecheckerboard="0"
     inkscape:deskcolor="#d1d1d1"
     showgrid="false"
     inkscape:zoom="2.9211538"
     inkscape:cx="60.42133"
     inkscape:cy="33.206057"
     inkscape:window-width="1920"
     inkscape:window-height="1017"
     inkscape:window-x="-8"
     inkscape:window-y="-8"
     inkscape:window-maximized="1"
     inkscape:current-layer="g138" />
  <g
     inkscape:groupmode="layer"
     inkscape:label="Image"
     id="g138"
     transform="translate(-1.4205122)">
    <rect
       style="fill:#bec3c5;stroke:#575e75;stroke-width:0;stroke-linecap:round;stroke-miterlimit:5;paint-order:markers stroke fill"
       id="rect298"
       width="116.26608"
       height="40"
       x="1.4205127"
       y="0" />
    <path
       id="path9255"
       style="font-size:29.3333px;line-height:1.1;font-family:'Segoe Script';-inkscape-font-specification:'Segoe Script';letter-spacing:0px;word-spacing:0px;mix-blend-mode:normal;fill:#000000;fill-opacity:1"
       d="m 75.583223,3.9595294 c -3.02453,-0.1099803 -5.606301,3.3806648 -4.408203,6.2167966 1.781523,2.687759 6.473478,2.104584 7.660156,-0.8515626 1.110522,-2.1523862 -0.453441,-5.3464099 -2.982422,-5.3730465 -0.08984,0.0026 -0.179687,0.00521 -0.269531,0.00781 z M 45.48752,4.063045 c -2.45675,0.2571237 -4.104223,2.6332738 -4.45214,4.9260014 -0.328331,1.6405756 -0.734617,3.2643876 -1.057626,4.9060306 -1.028001,-1.951101 -4.303609,-2.326684 -5.488701,-0.341145 -1.336825,1.716226 -1.214678,4.351368 -3.15583,5.628254 -0.887223,0.550831 -1.759678,1.20398 -2.806641,1.408203 0.643755,-1.694734 1.920509,-3.314511 1.605943,-5.243376 -0.169387,-1.505995 -1.564894,-2.7435 -3.09813,-2.623811 -1.596829,0.01854 -3.027564,1.144195 -3.623104,2.589309 -1.210795,1.641978 -2.705806,3.041344 -4.189396,4.430222 -0.726361,-0.590633 -1.522819,-1.124295 -2.185547,-1.769531 1.237905,-1.189328 2.390622,-3.009018 1.684242,-4.768897 -0.64051,-1.864775 -3.185848,-2.787393 -4.798412,-1.561188 -3.072871,1.653699 -4.891074,5.684164 -3.516689,9.00196 0.858786,1.69423 2.584963,2.638349 4.003906,3.798828 -0.48424,0.919159 -1.64855,1.068586 -2.39237,1.71362 -1.491412,0.866771 -2.969637,2.497567 -2.529505,4.352786 0.611232,2.336287 3.847201,3.392806 5.724206,1.875393 3.051266,-1.602213 4.868948,-4.663883 7.392982,-6.89883 0.299384,-0.500561 0.563221,0.406338 0.871093,0.5 1.79326,1.54583 4.443519,1.903848 6.640625,1.09375 -0.828966,2.792682 -1.951048,5.590447 -1.981803,8.535449 0.499966,2.543704 4.326509,3.358702 5.934232,1.389464 0.778954,-0.908264 0.780241,-2.178421 1.219446,-3.247179 1.204724,-4.260609 2.202441,-8.569068 3.597425,-12.775129 0.228848,-0.98124 0.06969,0.26895 0.06859,0.618879 -0.06486,2.159656 -0.07008,4.398262 0.625,6.462891 1.365952,2.833744 5.324776,3.989535 7.98114,2.275187 2.361793,-1.044957 4.166581,-2.966405 5.845032,-4.87089 0.587385,2.185009 1.180651,4.686986 3.165614,6.040815 2.163791,1.177061 4.987388,-0.216376 5.873206,-2.39273 1.755828,-2.952553 3.420088,-5.980607 5.478758,-8.734023 0.315825,-0.233258 0.729773,-0.206697 1.101562,-0.216797 -0.25168,3.310678 0.382396,6.975273 2.851563,9.378907 2.55063,1.994438 6.437897,1.441253 8.728516,-0.701172 0.400003,-0.196987 0.64022,-0.639151 1.066406,-0.779297 1.559187,2.242712 5.050277,2.593364 7.12916,0.882891 0.85552,-0.483966 1.59359,-1.139888 2.31225,-1.804766 1.60765,2.723657 5.66248,3.566493 8.19733,1.649815 0.26771,-0.08715 0.60356,-0.546252 0.774597,-0.428555 0.83047,1.938376 3.6304,2.56018 5.22473,1.184891 1.98562,-1.245725 2.70476,-4.425128 0.95958,-6.160057 -0.55281,-0.236963 0.0552,-0.297618 0.24909,-0.560294 1.3032,-1.303599 0.95692,-3.33422 1.31861,-4.975765 0.58472,-3.588911 1.86832,-7.083538 1.86199,-10.7530046 -0.60363,-2.3455505 -4.07643,-3.1547009 -5.65479,-1.3143889 -1.49769,1.2757352 -1.9122,3.3666459 -1.80755,5.2455565 -0.41721,3.47981 -1.7576,6.940907 -1.17243,10.490708 -1.386377,-0.721211 -3.254777,-0.0924 -3.941397,1.306641 -0.33332,0.357206 -0.6972,0.04504 -0.66121,-0.378794 -0.60925,-2.678079 0.9727,-5.441458 -0.0662,-8.07778 -0.61303,-1.764136 -2.42347,-3.081768 -4.31815,-2.898377 -1.59153,-0.103179 -3.33487,0.0513 -4.56614,1.176025 -3.619583,2.801233 -5.409515,7.446234 -9.43967,9.791714 -0.562978,0.375202 -1.155835,0.707958 -1.778696,0.973149 -0.789312,-3.06532 0.942668,-6.219657 -0.01166,-9.260239 -0.834712,-1.674372 -3.244337,-1.868239 -4.648624,-0.819159 -1.673128,0.709039 -3.512304,-0.05895 -5.253951,0.167414 -1.387467,0.05728 -2.598523,0.866685 -3.446466,1.927028 -1.520246,1.711749 -2.407435,3.853311 -3.494768,5.842378 -0.530991,-2.579283 -0.849938,-5.418403 -2.599162,-7.505801 -2.184382,-1.709675 -5.99504,0.107659 -5.906698,2.919863 -0.24839,0.717548 0.852226,1.41397 0.17519,2.038846 -1.577709,1.81961 -3.08753,3.75862 -5.173237,5.017795 -0.07282,-2.026711 0.142126,-4.082713 0.420157,-6.073797 0.488144,-3.060017 1.498821,-6.006174 2.615446,-8.8835627 0.52962,-2.153808 -1.112193,-4.8323819 -3.480924,-4.7223283 z" />
    <path
       id="path1513"
       style="font-size:29.3333px;line-height:1.1;font-family:'Segoe Script';-inkscape-font-specification:'Segoe Script';letter-spacing:0px;word-spacing:0px;mix-blend-mode:normal;fill:#787878;fill-opacity:1;filter:url(#filter7064)"
       d="m 75.582964,4.4568204 c -2.650515,-0.0867 -4.95208,2.90427 -4.001955,5.425781 1.527468,2.3492726 5.530595,1.8751026 6.713845,-0.577886 0.86056,-1.614521 0.26608,-3.919485 -1.48924,-4.646723 -0.3842,-0.161567 -0.80573,-0.243246 -1.22265,-0.201172 z m -30.261721,0.113281 c -2.236222,0.366206 -3.538425,2.63736 -3.820312,4.720703 -1.334084,5.7978046 -2.742315,11.8037016 -1.763445,17.7719066 0.752297,2.79031 4.248014,4.474332 6.857711,3.140374 2.955926,-1.025181 5.089941,-3.495423 7.052218,-5.773608 0.286628,1.353783 0.712172,2.719368 1.212163,4.024261 0.472509,1.048802 1.058352,2.206678 2.121821,2.75113 2.025113,0.846457 4.438276,-0.544903 5.092635,-2.553189 1.904529,-2.935628 3.490475,-6.084134 5.633928,-8.862827 0.616635,-0.09061 1.238657,-0.133563 1.859375,-0.185547 -0.319083,3.246746 0.09681,6.860014 2.386719,9.361329 2.249408,2.040261 5.923648,1.606835 8.096358,-0.330495 0.60069,-0.42242 1.16263,-0.893773 1.722,-1.370677 1.07662,2.263232 4.31716,3.00664 6.311109,1.515848 1.20242,-0.600536 2.21112,-1.509089 3.16155,-2.443583 1.1146,2.522519 4.47046,3.848731 6.93643,2.487226 0.79158,-0.332094 1.51763,-0.826245 2.114337,-1.444257 0.22305,1.628776 2.02808,2.893904 3.62003,2.278415 2.22761,-0.559246 3.72177,-3.506398 2.34505,-5.496335 -0.40677,-0.600162 -1.05617,-1.014384 -1.75219,-1.196142 0.82361,0.0395 1.72584,-0.21678 2.0918,-1.027344 0.65432,-1.356531 0.43585,-2.94484 0.78253,-4.371918 0.58048,-3.387847 1.69023,-6.692335 1.88153,-10.1398016 -0.34125,-1.819663 -2.74132,-2.818556 -4.26562,-1.738281 -1.64458,0.981778 -2.43241,3.018977 -2.20569,4.8748506 -0.3251,3.655876 -1.85075,7.253963 -1.2572,10.964994 0.44967,0.692527 1.20512,1.144284 2,1.326171 -0.5573,0.0128 -1.11777,0.169846 -1.58008,0.486329 -0.36244,-1.765026 -3.110737,-2.257105 -4.035047,-0.686855 -0.3874,0.431364 -0.90703,1.124762 -1.57042,0.854823 -0.85631,-1.218021 -0.49952,-2.822627 -0.39809,-4.20173 0.31641,-1.952223 0.66316,-4.206973 -0.64963,-5.891364 -0.85353,-1.173821 -2.42355,-1.689497 -3.81959,-1.377074 -1.04975,-0.130376 -2.2036,-0.109164 -3.05636,0.602347 -3.606619,2.240387 -5.147109,6.536751 -8.504059,9.061181 -1.18825,0.974275 -2.48154,1.851471 -3.93164,2.384765 -0.42149,-0.597168 -0.2723,-1.426171 -0.40702,-2.12169 -0.12047,-2.522134 0.90014,-5.031499 0.33085,-7.542372 -0.75896,-1.450314 -2.926547,-1.617967 -4.082032,-0.5625 -2.326273,0.8732 -4.976223,-0.670981 -7.19336,0.68164 -2.648422,1.888721 -3.625892,5.141979 -5.232165,7.818727 -0.193664,0.651524 -0.241494,0.178639 -0.301456,-0.223795 -0.579819,-2.668276 -0.82629,-5.541891 -2.419503,-7.848838 -1.850381,-1.667367 -5.399611,-0.08266 -5.257813,2.445313 -0.154668,0.732965 0.904989,1.436207 0.253906,2.083984 -1.820092,2.11377 -3.567608,4.416909 -6.101562,5.708985 -0.449254,-0.861089 -0.0452,-1.858238 -0.131724,-2.780106 0.181067,-4.274374 1.090656,-8.523885 2.852427,-12.4073946 0.5739,-1.581195 0.146778,-3.641862 -1.445313,-4.453126 -0.466142,-0.252269 -1.006223,-0.373353 -1.535156,-0.314453 z M 15.368118,11.566196 c -3.46697,1.06251 -5.852273,5.161552 -4.611328,8.666016 0.823165,1.851264 2.756304,2.75106 4.210938,4.019531 0.07178,0.945817 -1.025934,1.240459 -1.635442,1.710137 -1.439501,0.82243 -3.188062,1.812824 -3.436824,3.627754 -0.164156,2.256934 2.767496,3.828824 4.612782,2.593965 3.003797,-1.275346 4.698627,-4.240645 7.040165,-6.332872 0.432255,-0.441767 0.875693,-0.87223 1.319709,-1.302109 1.559435,2.455733 5.045028,3.078209 7.574219,1.851563 0.467648,-0.291809 0.508375,0.124833 0.251953,0.451171 -0.835867,2.802893 -1.862838,5.586982 -2.150391,8.513672 0.403784,2.370057 4.095095,3.075139 5.369806,1.054123 1.492944,-3.901764 2.078189,-8.085904 3.439396,-12.030996 0.897329,-3.161613 2.04245,-6.28159 2.421267,-9.560236 -0.345862,-2.117236 -3.648041,-2.948763 -4.816406,-1.072266 -1.413426,1.741968 -1.218729,4.48496 -3.2461,5.773024 -1.175485,0.7385 -2.344709,1.65293 -3.800775,1.631273 -0.122187,-0.99135 0.749246,-1.728136 1.010633,-2.632814 0.698081,-1.362662 1.218963,-3.254461 0.08507,-4.539061 -1.436298,-1.472505 -4.199373,-0.711552 -4.861655,1.180408 -1.376633,1.973686 -3.130645,3.613173 -4.898111,5.231702 -0.960955,-0.826441 -2.0719,-1.467696 -2.916015,-2.425782 1.097233,-1.115233 2.458187,-2.522783 2.040855,-4.237132 -0.293618,-1.326779 -1.657469,-2.29242 -3.003746,-2.171071 z m 74.892575,6.583985 c -0.53084,1.650992 -1.35923,3.247365 -2.62695,4.453124 0.59183,-1.61573 1.50677,-3.205017 2.62695,-4.453124 z" />
    <text
       xml:space="preserve"
       style="font-style:normal;font-variant:normal;font-weight:normal;font-stretch:normal;font-size:29.3333px;line-height:1.1;font-family:'Segoe Script';-inkscape-font-specification:'Segoe Script';letter-spacing:0px;word-spacing:0px;mix-blend-mode:normal;fill:#ffffff;fill-opacity:1;filter:url(#filter14733)"
       x="8.0678301"
       y="27.79018"
       id="text408"><tspan
         sodipodi:role="line"
         id="tspan406"
         x="8.0678301"
         y="27.79018"
         style="font-style:normal;font-variant:normal;font-weight:normal;font-stretch:normal;font-family:'Segoe Script';-inkscape-font-specification:'Segoe Script';fill:#ffffff;fill-opacity:1">sylvia!</tspan></text>
  </g>
</svg>
